#define bat_8_width 14
#define bat_8_height 14
static unsigned char bat_8_bits[] = {
   0x00, 0x00, 0xc0, 0x00, 0xf0, 0x03, 0x10, 0x02, 0xf0, 0x03, 0xf0, 0x03,
   0xf0, 0x03, 0xf0, 0x03, 0xf0, 0x03, 0xf0, 0x03, 0xf0, 0x03, 0xf0, 0x03,
   0xf0, 0x03, 0x00, 0x00 };
