#define bat_4_width 14
#define bat_4_height 14
static unsigned char bat_4_bits[] = {
   0x00, 0x00, 0xc0, 0x00, 0xf0, 0x03, 0x10, 0x02, 0x10, 0x02, 0x10, 0x02,
   0x10, 0x02, 0x10, 0x02, 0xf0, 0x03, 0xf0, 0x03, 0xf0, 0x03, 0xf0, 0x03,
   0xf0, 0x03, 0x00, 0x00 };
