#define bat_9_width 14
#define bat_9_height 14
static unsigned char bat_9_bits[] = {
   0x00, 0x00, 0xc0, 0x00, 0xf0, 0x03, 0xf0, 0x03, 0xf0, 0x03, 0xf0, 0x03,
   0xf0, 0x03, 0xf0, 0x03, 0xf0, 0x03, 0xf0, 0x03, 0xf0, 0x03, 0xf0, 0x03,
   0xf0, 0x03, 0x00, 0x00 };
