#define vol_hi_width 11
#define vol_hi_height 11
static unsigned char vol_hi_bits[] = {
   0x00, 0x00, 0x90, 0x00, 0x18, 0x01, 0x5c, 0x02, 0x9f, 0x02, 0x9f, 0x02,
   0x9f, 0x02, 0x5c, 0x02, 0x18, 0x01, 0x90, 0x00, 0x00, 0x00 };
