#define vol_mute_width 11
#define vol_mute_height 11
static unsigned char vol_mute_bits[] = {
   0x00, 0x00, 0x10, 0x00, 0x18, 0x00, 0x1c, 0x00, 0x9f, 0x02, 0x1f, 0x01,
   0x9f, 0x02, 0x1c, 0x00, 0x18, 0x00, 0x10, 0x00, 0x00, 0x00 };
