#define wifi_2_width 14
#define wifi_2_height 14
static unsigned char wifi_2_bits[] = {
   0x00, 0x00, 0x00, 0x00, 0x00, 0x00, 0x00, 0x00, 0x00, 0x00, 0x00, 0x00,
   0x00, 0x00, 0x00, 0x00, 0x00, 0x00, 0x18, 0x00, 0x18, 0x00, 0x1b, 0x00,
   0x1b, 0x00, 0x00, 0x00 };
