#define wifi_3_width 14
#define wifi_3_height 14
static unsigned char wifi_3_bits[] = {
   0x00, 0x00, 0x00, 0x00, 0x00, 0x00, 0x00, 0x00, 0x00, 0x00, 0x00, 0x00,
   0x00, 0x00, 0xc0, 0x00, 0xc0, 0x00, 0xd8, 0x00, 0xd8, 0x00, 0xdb, 0x00,
   0xdb, 0x00, 0x00, 0x00 };
