#define wifi_5_width 14
#define wifi_5_height 14
static unsigned char wifi_5_bits[] = {
   0x00, 0x00, 0x00, 0x30, 0x00, 0x30, 0x00, 0x30, 0x00, 0x36, 0x00, 0x36,
   0x00, 0x36, 0xc0, 0x36, 0xc0, 0x36, 0xd8, 0x36, 0xd8, 0x36, 0xdb, 0x36,
   0xdb, 0x36, 0x00, 0x00 };
