#define wifi_0_width 14
#define wifi_0_height 14
static unsigned char wifi_0_bits[] = {
   0x00, 0x00, 0x00, 0x00, 0x00, 0x00, 0x00, 0x00, 0x00, 0x07, 0x80, 0x1f,
   0xfe, 0x07, 0xfe, 0x07, 0x80, 0x1f, 0x00, 0x07, 0x00, 0x00, 0x00, 0x00,
   0x00, 0x00, 0x00, 0x00 };
