#define wifi_4_width 14
#define wifi_4_height 14
static unsigned char wifi_4_bits[] = {
   0x00, 0x00, 0x00, 0x00, 0x00, 0x00, 0x00, 0x00, 0x00, 0x06, 0x00, 0x06,
   0x00, 0x06, 0xc0, 0x06, 0xc0, 0x06, 0xd8, 0x06, 0xd8, 0x06, 0xdb, 0x06,
   0xdb, 0x06, 0x00, 0x00 };
